<mxfile host="app.diagrams.net" modified="2022-03-20T09:40:44.365Z" agent="5.0 (Windows NT 10.0; Win64; x64) AppleWebKit/537.36 (KHTML, like Gecko) Chrome/99.0.4844.74 Safari/537.36" etag="nWqmarcjZiBU3feG9EyR" version="17.1.3" type="github">
  <diagram id="C5RBs43oDa-KdzZeNtuy" name="Page-1">
    <mxGraphModel dx="1153" dy="608" grid="1" gridSize="10" guides="1" tooltips="1" connect="1" arrows="1" fold="1" page="1" pageScale="1" pageWidth="827" pageHeight="1169" math="0" shadow="0">
      <root>
        <mxCell id="WIyWlLk6GJQsqaUBKTNV-0" />
        <mxCell id="WIyWlLk6GJQsqaUBKTNV-1" parent="WIyWlLk6GJQsqaUBKTNV-0" />
        <mxCell id="kcvEA24CebEOUI8K_3z3-49" value="GameObject" style="swimlane;fontStyle=1;align=center;verticalAlign=top;childLayout=stackLayout;horizontal=1;startSize=26;horizontalStack=0;resizeParent=1;resizeParentMax=0;resizeLast=0;collapsible=1;marginBottom=0;fillColor=#6d8764;fontColor=#ffffff;strokeColor=#3A5431;" vertex="1" parent="WIyWlLk6GJQsqaUBKTNV-1">
          <mxGeometry x="190" y="36" width="230" height="110" as="geometry" />
        </mxCell>
        <mxCell id="kcvEA24CebEOUI8K_3z3-50" value="- type: Info::ObjType&#xa;- colour: Info:: ObjColour" style="text;strokeColor=none;fillColor=none;align=left;verticalAlign=top;spacingLeft=4;spacingRight=4;overflow=hidden;rotatable=0;points=[[0,0.5],[1,0.5]];portConstraint=eastwest;" vertex="1" parent="kcvEA24CebEOUI8K_3z3-49">
          <mxGeometry y="26" width="230" height="34" as="geometry" />
        </mxCell>
        <mxCell id="kcvEA24CebEOUI8K_3z3-51" value="" style="line;strokeWidth=1;fillColor=none;align=left;verticalAlign=middle;spacingTop=-1;spacingLeft=3;spacingRight=3;rotatable=0;labelPosition=right;points=[];portConstraint=eastwest;" vertex="1" parent="kcvEA24CebEOUI8K_3z3-49">
          <mxGeometry y="60" width="230" height="8" as="geometry" />
        </mxCell>
        <mxCell id="kcvEA24CebEOUI8K_3z3-52" value="+ getType() = 0 : Info::ObjType&#xa;+ getColour() = 0: Info::ObjColour" style="text;strokeColor=none;fillColor=none;align=left;verticalAlign=top;spacingLeft=4;spacingRight=4;overflow=hidden;rotatable=0;points=[[0,0.5],[1,0.5]];portConstraint=eastwest;" vertex="1" parent="kcvEA24CebEOUI8K_3z3-49">
          <mxGeometry y="68" width="230" height="42" as="geometry" />
        </mxCell>
        <mxCell id="kcvEA24CebEOUI8K_3z3-53" value="Ghost" style="swimlane;fontStyle=1;align=center;verticalAlign=top;childLayout=stackLayout;horizontal=1;startSize=26;horizontalStack=0;resizeParent=1;resizeParentMax=0;resizeLast=0;collapsible=1;marginBottom=0;fillColor=#647687;fontColor=#ffffff;strokeColor=#314354;" vertex="1" parent="WIyWlLk6GJQsqaUBKTNV-1">
          <mxGeometry x="15" y="274" width="160" height="120" as="geometry" />
        </mxCell>
        <mxCell id="kcvEA24CebEOUI8K_3z3-54" value="- type: Info::ObjType&#xa;- colour: Info:: ObjColour" style="text;strokeColor=none;fillColor=none;align=left;verticalAlign=top;spacingLeft=4;spacingRight=4;overflow=hidden;rotatable=0;points=[[0,0.5],[1,0.5]];portConstraint=eastwest;" vertex="1" parent="kcvEA24CebEOUI8K_3z3-53">
          <mxGeometry y="26" width="160" height="44" as="geometry" />
        </mxCell>
        <mxCell id="kcvEA24CebEOUI8K_3z3-55" value="" style="line;strokeWidth=1;fillColor=none;align=left;verticalAlign=middle;spacingTop=-1;spacingLeft=3;spacingRight=3;rotatable=0;labelPosition=right;points=[];portConstraint=eastwest;" vertex="1" parent="kcvEA24CebEOUI8K_3z3-53">
          <mxGeometry y="70" width="160" height="8" as="geometry" />
        </mxCell>
        <mxCell id="kcvEA24CebEOUI8K_3z3-56" value="+ getType() : Info::ObjType&#xa;+ getColour() : Info::ObjColour" style="text;strokeColor=none;fillColor=none;align=left;verticalAlign=top;spacingLeft=4;spacingRight=4;overflow=hidden;rotatable=0;points=[[0,0.5],[1,0.5]];portConstraint=eastwest;" vertex="1" parent="kcvEA24CebEOUI8K_3z3-53">
          <mxGeometry y="78" width="160" height="42" as="geometry" />
        </mxCell>
        <mxCell id="kcvEA24CebEOUI8K_3z3-57" value="Dot" style="swimlane;fontStyle=1;align=center;verticalAlign=top;childLayout=stackLayout;horizontal=1;startSize=20;horizontalStack=0;resizeParent=1;resizeParentMax=0;resizeLast=0;collapsible=1;marginBottom=0;fillColor=#a0522d;fontColor=#ffffff;strokeColor=#6D1F00;" vertex="1" parent="WIyWlLk6GJQsqaUBKTNV-1">
          <mxGeometry x="195" y="280" width="170" height="114" as="geometry" />
        </mxCell>
        <mxCell id="kcvEA24CebEOUI8K_3z3-58" value="- type: Info::ObjType&#xa;- colour: Info:: ObjColour" style="text;strokeColor=none;fillColor=none;align=left;verticalAlign=top;spacingLeft=4;spacingRight=4;overflow=hidden;rotatable=0;points=[[0,0.5],[1,0.5]];portConstraint=eastwest;" vertex="1" parent="kcvEA24CebEOUI8K_3z3-57">
          <mxGeometry y="20" width="170" height="40" as="geometry" />
        </mxCell>
        <mxCell id="kcvEA24CebEOUI8K_3z3-59" value="" style="line;strokeWidth=1;fillColor=none;align=left;verticalAlign=middle;spacingTop=-1;spacingLeft=3;spacingRight=3;rotatable=0;labelPosition=right;points=[];portConstraint=eastwest;" vertex="1" parent="kcvEA24CebEOUI8K_3z3-57">
          <mxGeometry y="60" width="170" height="8" as="geometry" />
        </mxCell>
        <mxCell id="kcvEA24CebEOUI8K_3z3-60" value="+ getType() : Info::ObjType&#xa;+ getColour() : Info::ObjColour" style="text;strokeColor=none;fillColor=none;align=left;verticalAlign=top;spacingLeft=4;spacingRight=4;overflow=hidden;rotatable=0;points=[[0,0.5],[1,0.5]];portConstraint=eastwest;" vertex="1" parent="kcvEA24CebEOUI8K_3z3-57">
          <mxGeometry y="68" width="170" height="46" as="geometry" />
        </mxCell>
        <mxCell id="kcvEA24CebEOUI8K_3z3-61" value="Wall" style="swimlane;fontStyle=1;align=center;verticalAlign=top;childLayout=stackLayout;horizontal=1;startSize=26;horizontalStack=0;resizeParent=1;resizeParentMax=0;resizeLast=0;collapsible=1;marginBottom=0;fillColor=#e3c800;fontColor=#000000;strokeColor=#B09500;" vertex="1" parent="WIyWlLk6GJQsqaUBKTNV-1">
          <mxGeometry x="370" y="252" width="170" height="108" as="geometry" />
        </mxCell>
        <mxCell id="kcvEA24CebEOUI8K_3z3-62" value="- type: Info::ObjType&#xa;- colour: Info:: ObjColour" style="text;strokeColor=none;fillColor=none;align=left;verticalAlign=top;spacingLeft=4;spacingRight=4;overflow=hidden;rotatable=0;points=[[0,0.5],[1,0.5]];portConstraint=eastwest;" vertex="1" parent="kcvEA24CebEOUI8K_3z3-61">
          <mxGeometry y="26" width="170" height="34" as="geometry" />
        </mxCell>
        <mxCell id="kcvEA24CebEOUI8K_3z3-63" value="" style="line;strokeWidth=1;fillColor=none;align=left;verticalAlign=middle;spacingTop=-1;spacingLeft=3;spacingRight=3;rotatable=0;labelPosition=right;points=[];portConstraint=eastwest;" vertex="1" parent="kcvEA24CebEOUI8K_3z3-61">
          <mxGeometry y="60" width="170" height="8" as="geometry" />
        </mxCell>
        <mxCell id="kcvEA24CebEOUI8K_3z3-64" value="+ getType() : Info::ObjType&#xa;+ getColour() : Info::ObjColour" style="text;strokeColor=none;fillColor=none;align=left;verticalAlign=top;spacingLeft=4;spacingRight=4;overflow=hidden;rotatable=0;points=[[0,0.5],[1,0.5]];portConstraint=eastwest;" vertex="1" parent="kcvEA24CebEOUI8K_3z3-61">
          <mxGeometry y="68" width="170" height="40" as="geometry" />
        </mxCell>
        <mxCell id="kcvEA24CebEOUI8K_3z3-65" value="Empty" style="swimlane;fontStyle=1;align=center;verticalAlign=top;childLayout=stackLayout;horizontal=1;startSize=26;horizontalStack=0;resizeParent=1;resizeParentMax=0;resizeLast=0;collapsible=1;marginBottom=0;fillColor=#f0a30a;fontColor=#000000;strokeColor=#BD7000;" vertex="1" parent="WIyWlLk6GJQsqaUBKTNV-1">
          <mxGeometry x="460" y="114" width="176" height="110" as="geometry" />
        </mxCell>
        <mxCell id="kcvEA24CebEOUI8K_3z3-66" value="- type: Info::ObjType&#xa;- colour: Info:: ObjColour" style="text;strokeColor=none;fillColor=none;align=left;verticalAlign=top;spacingLeft=4;spacingRight=4;overflow=hidden;rotatable=0;points=[[0,0.5],[1,0.5]];portConstraint=eastwest;" vertex="1" parent="kcvEA24CebEOUI8K_3z3-65">
          <mxGeometry y="26" width="176" height="34" as="geometry" />
        </mxCell>
        <mxCell id="kcvEA24CebEOUI8K_3z3-67" value="" style="line;strokeWidth=1;fillColor=none;align=left;verticalAlign=middle;spacingTop=-1;spacingLeft=3;spacingRight=3;rotatable=0;labelPosition=right;points=[];portConstraint=eastwest;" vertex="1" parent="kcvEA24CebEOUI8K_3z3-65">
          <mxGeometry y="60" width="176" height="8" as="geometry" />
        </mxCell>
        <mxCell id="kcvEA24CebEOUI8K_3z3-68" value="+ getType() : Info::ObjType&#xa;+ getColour() : Info::ObjColour" style="text;strokeColor=none;fillColor=none;align=left;verticalAlign=top;spacingLeft=4;spacingRight=4;overflow=hidden;rotatable=0;points=[[0,0.5],[1,0.5]];portConstraint=eastwest;" vertex="1" parent="kcvEA24CebEOUI8K_3z3-65">
          <mxGeometry y="68" width="176" height="42" as="geometry" />
        </mxCell>
        <mxCell id="kcvEA24CebEOUI8K_3z3-69" value="Pacman" style="swimlane;fontStyle=1;align=center;verticalAlign=top;childLayout=stackLayout;horizontal=1;startSize=26;horizontalStack=0;resizeParent=1;resizeParentMax=0;resizeLast=0;collapsible=1;marginBottom=0;fillColor=#e51400;fontColor=#ffffff;strokeColor=#B20000;" vertex="1" parent="WIyWlLk6GJQsqaUBKTNV-1">
          <mxGeometry x="15" y="100" width="170" height="110" as="geometry" />
        </mxCell>
        <mxCell id="kcvEA24CebEOUI8K_3z3-70" value="- type: Info::ObjType&#xa;- colour: Info:: ObjColour" style="text;strokeColor=none;fillColor=none;align=left;verticalAlign=top;spacingLeft=4;spacingRight=4;overflow=hidden;rotatable=0;points=[[0,0.5],[1,0.5]];portConstraint=eastwest;" vertex="1" parent="kcvEA24CebEOUI8K_3z3-69">
          <mxGeometry y="26" width="170" height="34" as="geometry" />
        </mxCell>
        <mxCell id="kcvEA24CebEOUI8K_3z3-71" value="" style="line;strokeWidth=1;fillColor=none;align=left;verticalAlign=middle;spacingTop=-1;spacingLeft=3;spacingRight=3;rotatable=0;labelPosition=right;points=[];portConstraint=eastwest;" vertex="1" parent="kcvEA24CebEOUI8K_3z3-69">
          <mxGeometry y="60" width="170" height="8" as="geometry" />
        </mxCell>
        <mxCell id="kcvEA24CebEOUI8K_3z3-72" value="+ getType() : Info::ObjType&#xa;+ getColour() : Info::ObjColour" style="text;strokeColor=none;fillColor=none;align=left;verticalAlign=top;spacingLeft=4;spacingRight=4;overflow=hidden;rotatable=0;points=[[0,0.5],[1,0.5]];portConstraint=eastwest;" vertex="1" parent="kcvEA24CebEOUI8K_3z3-69">
          <mxGeometry y="68" width="170" height="42" as="geometry" />
        </mxCell>
        <mxCell id="kcvEA24CebEOUI8K_3z3-73" value="Game" style="swimlane;fontStyle=1;align=center;verticalAlign=top;childLayout=stackLayout;horizontal=1;startSize=26;horizontalStack=0;resizeParent=1;resizeParentMax=0;resizeLast=0;collapsible=1;marginBottom=0;fillColor=#ffcd28;gradientColor=#ffa500;strokeColor=#d79b00;" vertex="1" parent="WIyWlLk6GJQsqaUBKTNV-1">
          <mxGeometry x="167.5" y="702" width="190" height="128" as="geometry" />
        </mxCell>
        <mxCell id="kcvEA24CebEOUI8K_3z3-74" value="- move: Move&#xa;- interface: Interface&#xa;- stopFlag: bool" style="text;strokeColor=none;fillColor=none;align=left;verticalAlign=top;spacingLeft=4;spacingRight=4;overflow=hidden;rotatable=0;points=[[0,0.5],[1,0.5]];portConstraint=eastwest;" vertex="1" parent="kcvEA24CebEOUI8K_3z3-73">
          <mxGeometry y="26" width="190" height="54" as="geometry" />
        </mxCell>
        <mxCell id="kcvEA24CebEOUI8K_3z3-75" value="" style="line;strokeWidth=1;fillColor=none;align=left;verticalAlign=middle;spacingTop=-1;spacingLeft=3;spacingRight=3;rotatable=0;labelPosition=right;points=[];portConstraint=eastwest;" vertex="1" parent="kcvEA24CebEOUI8K_3z3-73">
          <mxGeometry y="80" width="190" height="8" as="geometry" />
        </mxCell>
        <mxCell id="kcvEA24CebEOUI8K_3z3-76" value="+ play() : void&#xa;+ stop(): void" style="text;strokeColor=none;fillColor=none;align=left;verticalAlign=top;spacingLeft=4;spacingRight=4;overflow=hidden;rotatable=0;points=[[0,0.5],[1,0.5]];portConstraint=eastwest;" vertex="1" parent="kcvEA24CebEOUI8K_3z3-73">
          <mxGeometry y="88" width="190" height="40" as="geometry" />
        </mxCell>
        <mxCell id="kcvEA24CebEOUI8K_3z3-77" value="Move" style="swimlane;fontStyle=1;align=center;verticalAlign=top;childLayout=stackLayout;horizontal=1;startSize=26;horizontalStack=0;resizeParent=1;resizeParentMax=0;resizeLast=0;collapsible=1;marginBottom=0;fillColor=#6a00ff;fontColor=#ffffff;strokeColor=#3700CC;" vertex="1" parent="WIyWlLk6GJQsqaUBKTNV-1">
          <mxGeometry x="570" y="224" width="220" height="220" as="geometry" />
        </mxCell>
        <mxCell id="kcvEA24CebEOUI8K_3z3-78" value="- field: Field&#xa;- level: Level" style="text;strokeColor=none;fillColor=none;align=left;verticalAlign=top;spacingLeft=4;spacingRight=4;overflow=hidden;rotatable=0;points=[[0,0.5],[1,0.5]];portConstraint=eastwest;" vertex="1" parent="kcvEA24CebEOUI8K_3z3-77">
          <mxGeometry y="26" width="220" height="34" as="geometry" />
        </mxCell>
        <mxCell id="kcvEA24CebEOUI8K_3z3-79" value="" style="line;strokeWidth=1;fillColor=none;align=left;verticalAlign=middle;spacingTop=-1;spacingLeft=3;spacingRight=3;rotatable=0;labelPosition=right;points=[];portConstraint=eastwest;" vertex="1" parent="kcvEA24CebEOUI8K_3z3-77">
          <mxGeometry y="60" width="220" height="8" as="geometry" />
        </mxCell>
        <mxCell id="kcvEA24CebEOUI8K_3z3-80" value="+ step(): void&#xa;+ # moveLeft(): void&#xa;+ # moveRight(): void&#xa;+ # moveDown(): void&#xa;+ # moveUp(): void&#xa;+ # buildField(): void&#xa;+ move_pac(str): void&#xa;+ do_move(intx, int y) : void&#xa;+ is_correct(int x,int y) : void&#xa;+ easy_move_ghost(int x, int y): void" style="text;strokeColor=none;fillColor=none;align=left;verticalAlign=top;spacingLeft=4;spacingRight=4;overflow=hidden;rotatable=0;points=[[0,0.5],[1,0.5]];portConstraint=eastwest;" vertex="1" parent="kcvEA24CebEOUI8K_3z3-77">
          <mxGeometry y="68" width="220" height="152" as="geometry" />
        </mxCell>
        <mxCell id="kcvEA24CebEOUI8K_3z3-81" value="Field" style="swimlane;fontStyle=1;align=center;verticalAlign=top;childLayout=stackLayout;horizontal=1;startSize=26;horizontalStack=0;resizeParent=1;resizeParentMax=0;resizeLast=0;collapsible=1;marginBottom=0;fillColor=#60a917;strokeColor=#2D7600;fontColor=#ffffff;" vertex="1" parent="WIyWlLk6GJQsqaUBKTNV-1">
          <mxGeometry x="310" y="425" width="160" height="90" as="geometry" />
        </mxCell>
        <mxCell id="kcvEA24CebEOUI8K_3z3-82" value="- cell: Cell[height][width]" style="text;strokeColor=none;fillColor=none;align=left;verticalAlign=top;spacingLeft=4;spacingRight=4;overflow=hidden;rotatable=0;points=[[0,0.5],[1,0.5]];portConstraint=eastwest;" vertex="1" parent="kcvEA24CebEOUI8K_3z3-81">
          <mxGeometry y="26" width="160" height="26" as="geometry" />
        </mxCell>
        <mxCell id="kcvEA24CebEOUI8K_3z3-83" value="" style="line;strokeWidth=1;fillColor=none;align=left;verticalAlign=middle;spacingTop=-1;spacingLeft=3;spacingRight=3;rotatable=0;labelPosition=right;points=[];portConstraint=eastwest;" vertex="1" parent="kcvEA24CebEOUI8K_3z3-81">
          <mxGeometry y="52" width="160" height="8" as="geometry" />
        </mxCell>
        <mxCell id="kcvEA24CebEOUI8K_3z3-84" value="+ getObjType(int x,int y):Info::ObjType" style="text;strokeColor=none;fillColor=none;align=left;verticalAlign=top;spacingLeft=4;spacingRight=4;overflow=hidden;rotatable=0;points=[[0,0.5],[1,0.5]];portConstraint=eastwest;" vertex="1" parent="kcvEA24CebEOUI8K_3z3-81">
          <mxGeometry y="60" width="160" height="30" as="geometry" />
        </mxCell>
        <mxCell id="kcvEA24CebEOUI8K_3z3-85" value="Level" style="swimlane;fontStyle=1;align=center;verticalAlign=top;childLayout=stackLayout;horizontal=1;startSize=26;horizontalStack=0;resizeParent=1;resizeParentMax=0;resizeLast=0;collapsible=1;marginBottom=0;fillColor=#dae8fc;gradientColor=#7ea6e0;strokeColor=#6c8ebf;" vertex="1" parent="WIyWlLk6GJQsqaUBKTNV-1">
          <mxGeometry x="510" y="524" width="160" height="86" as="geometry" />
        </mxCell>
        <mxCell id="kcvEA24CebEOUI8K_3z3-86" value="+ field: type" style="text;strokeColor=none;fillColor=none;align=left;verticalAlign=top;spacingLeft=4;spacingRight=4;overflow=hidden;rotatable=0;points=[[0,0.5],[1,0.5]];portConstraint=eastwest;" vertex="1" parent="kcvEA24CebEOUI8K_3z3-85">
          <mxGeometry y="26" width="160" height="26" as="geometry" />
        </mxCell>
        <mxCell id="kcvEA24CebEOUI8K_3z3-87" value="" style="line;strokeWidth=1;fillColor=none;align=left;verticalAlign=middle;spacingTop=-1;spacingLeft=3;spacingRight=3;rotatable=0;labelPosition=right;points=[];portConstraint=eastwest;" vertex="1" parent="kcvEA24CebEOUI8K_3z3-85">
          <mxGeometry y="52" width="160" height="8" as="geometry" />
        </mxCell>
        <mxCell id="kcvEA24CebEOUI8K_3z3-88" value="+ method(type): type" style="text;strokeColor=none;fillColor=none;align=left;verticalAlign=top;spacingLeft=4;spacingRight=4;overflow=hidden;rotatable=0;points=[[0,0.5],[1,0.5]];portConstraint=eastwest;" vertex="1" parent="kcvEA24CebEOUI8K_3z3-85">
          <mxGeometry y="60" width="160" height="26" as="geometry" />
        </mxCell>
        <mxCell id="kcvEA24CebEOUI8K_3z3-89" value="Cell" style="swimlane;fontStyle=1;align=center;verticalAlign=top;childLayout=stackLayout;horizontal=1;startSize=26;horizontalStack=0;resizeParent=1;resizeParentMax=0;resizeLast=0;collapsible=1;marginBottom=0;fillColor=#a20025;fontColor=#ffffff;strokeColor=#6F0000;" vertex="1" parent="WIyWlLk6GJQsqaUBKTNV-1">
          <mxGeometry x="670" y="442" width="160" height="114" as="geometry" />
        </mxCell>
        <mxCell id="kcvEA24CebEOUI8K_3z3-90" value="- object: Object&#xa;- posX: int&#xa;- posY: int" style="text;strokeColor=none;fillColor=none;align=left;verticalAlign=top;spacingLeft=4;spacingRight=4;overflow=hidden;rotatable=0;points=[[0,0.5],[1,0.5]];portConstraint=eastwest;" vertex="1" parent="kcvEA24CebEOUI8K_3z3-89">
          <mxGeometry y="26" width="160" height="54" as="geometry" />
        </mxCell>
        <mxCell id="kcvEA24CebEOUI8K_3z3-91" value="" style="line;strokeWidth=1;fillColor=none;align=left;verticalAlign=middle;spacingTop=-1;spacingLeft=3;spacingRight=3;rotatable=0;labelPosition=right;points=[];portConstraint=eastwest;" vertex="1" parent="kcvEA24CebEOUI8K_3z3-89">
          <mxGeometry y="80" width="160" height="8" as="geometry" />
        </mxCell>
        <mxCell id="kcvEA24CebEOUI8K_3z3-92" value="+ method(type): type" style="text;strokeColor=none;fillColor=none;align=left;verticalAlign=top;spacingLeft=4;spacingRight=4;overflow=hidden;rotatable=0;points=[[0,0.5],[1,0.5]];portConstraint=eastwest;" vertex="1" parent="kcvEA24CebEOUI8K_3z3-89">
          <mxGeometry y="88" width="160" height="26" as="geometry" />
        </mxCell>
        <mxCell id="kcvEA24CebEOUI8K_3z3-97" value="ConsoleInteface" style="swimlane;fontStyle=1;align=center;verticalAlign=top;childLayout=stackLayout;horizontal=1;startSize=26;horizontalStack=0;resizeParent=1;resizeParentMax=0;resizeLast=0;collapsible=1;marginBottom=0;fillColor=#cdeb8b;strokeColor=#36393d;" vertex="1" parent="WIyWlLk6GJQsqaUBKTNV-1">
          <mxGeometry x="15" y="1060" width="160" height="80" as="geometry" />
        </mxCell>
        <mxCell id="kcvEA24CebEOUI8K_3z3-99" value="" style="line;strokeWidth=1;fillColor=none;align=left;verticalAlign=middle;spacingTop=-1;spacingLeft=3;spacingRight=3;rotatable=0;labelPosition=right;points=[];portConstraint=eastwest;" vertex="1" parent="kcvEA24CebEOUI8K_3z3-97">
          <mxGeometry y="26" width="160" height="8" as="geometry" />
        </mxCell>
        <mxCell id="kcvEA24CebEOUI8K_3z3-100" value="+ read(): void&#xa;+ draw(Field): void" style="text;strokeColor=none;fillColor=none;align=left;verticalAlign=top;spacingLeft=4;spacingRight=4;overflow=hidden;rotatable=0;points=[[0,0.5],[1,0.5]];portConstraint=eastwest;" vertex="1" parent="kcvEA24CebEOUI8K_3z3-97">
          <mxGeometry y="34" width="160" height="46" as="geometry" />
        </mxCell>
        <mxCell id="kcvEA24CebEOUI8K_3z3-101" value="GraphicInterface" style="swimlane;fontStyle=1;align=center;verticalAlign=top;childLayout=stackLayout;horizontal=1;startSize=26;horizontalStack=0;resizeParent=1;resizeParentMax=0;resizeLast=0;collapsible=1;marginBottom=0;fillColor=#cdeb8b;strokeColor=#36393d;" vertex="1" parent="WIyWlLk6GJQsqaUBKTNV-1">
          <mxGeometry x="185" y="1060" width="155" height="70" as="geometry" />
        </mxCell>
        <mxCell id="kcvEA24CebEOUI8K_3z3-103" value="" style="line;strokeWidth=1;fillColor=#cdeb8b;align=left;verticalAlign=middle;spacingTop=-1;spacingLeft=3;spacingRight=3;rotatable=0;labelPosition=right;points=[];portConstraint=eastwest;strokeColor=#36393d;" vertex="1" parent="kcvEA24CebEOUI8K_3z3-101">
          <mxGeometry y="26" width="155" height="8" as="geometry" />
        </mxCell>
        <mxCell id="kcvEA24CebEOUI8K_3z3-104" value="+ read(): void&#xa;+ draw(Field): void" style="text;strokeColor=none;fillColor=none;align=left;verticalAlign=top;spacingLeft=4;spacingRight=4;overflow=hidden;rotatable=0;points=[[0,0.5],[1,0.5]];portConstraint=eastwest;" vertex="1" parent="kcvEA24CebEOUI8K_3z3-101">
          <mxGeometry y="34" width="155" height="36" as="geometry" />
        </mxCell>
        <mxCell id="kcvEA24CebEOUI8K_3z3-105" value="TelegramInterface&#xa;" style="swimlane;fontStyle=1;align=center;verticalAlign=top;childLayout=stackLayout;horizontal=1;startSize=26;horizontalStack=0;resizeParent=1;resizeParentMax=0;resizeLast=0;collapsible=1;marginBottom=0;fillColor=#cdeb8b;strokeColor=#36393d;" vertex="1" parent="WIyWlLk6GJQsqaUBKTNV-1">
          <mxGeometry x="350" y="1020" width="150" height="70" as="geometry" />
        </mxCell>
        <mxCell id="kcvEA24CebEOUI8K_3z3-107" value="" style="line;strokeWidth=1;fillColor=none;align=left;verticalAlign=middle;spacingTop=-1;spacingLeft=3;spacingRight=3;rotatable=0;labelPosition=right;points=[];portConstraint=eastwest;" vertex="1" parent="kcvEA24CebEOUI8K_3z3-105">
          <mxGeometry y="26" width="150" height="8" as="geometry" />
        </mxCell>
        <mxCell id="kcvEA24CebEOUI8K_3z3-108" value="+ read(): void&#xa;+ draw(Field): void" style="text;strokeColor=none;fillColor=none;align=left;verticalAlign=top;spacingLeft=4;spacingRight=4;overflow=hidden;rotatable=0;points=[[0,0.5],[1,0.5]];portConstraint=eastwest;" vertex="1" parent="kcvEA24CebEOUI8K_3z3-105">
          <mxGeometry y="34" width="150" height="36" as="geometry" />
        </mxCell>
        <mxCell id="kcvEA24CebEOUI8K_3z3-109" value="Info&#xa;" style="swimlane;fontStyle=1;align=center;verticalAlign=top;childLayout=stackLayout;horizontal=1;startSize=26;horizontalStack=0;resizeParent=1;resizeParentMax=0;resizeLast=0;collapsible=1;marginBottom=0;fillColor=#b1ddf0;strokeColor=#10739e;" vertex="1" parent="WIyWlLk6GJQsqaUBKTNV-1">
          <mxGeometry x="15" y="425" width="160" height="108" as="geometry" />
        </mxCell>
        <mxCell id="kcvEA24CebEOUI8K_3z3-110" value="+ height: static const int&#xa;+ width: static const int&#xa;+ objType: ObjType&#xa;+ objColour: ObjColour&#xa;+ ghostLevel: GhostLevel" style="text;strokeColor=none;fillColor=none;align=left;verticalAlign=top;spacingLeft=4;spacingRight=4;overflow=hidden;rotatable=0;points=[[0,0.5],[1,0.5]];portConstraint=eastwest;" vertex="1" parent="kcvEA24CebEOUI8K_3z3-109">
          <mxGeometry y="26" width="160" height="74" as="geometry" />
        </mxCell>
        <mxCell id="kcvEA24CebEOUI8K_3z3-111" value="" style="line;strokeWidth=1;fillColor=none;align=left;verticalAlign=middle;spacingTop=-1;spacingLeft=3;spacingRight=3;rotatable=0;labelPosition=right;points=[];portConstraint=eastwest;" vertex="1" parent="kcvEA24CebEOUI8K_3z3-109">
          <mxGeometry y="100" width="160" height="8" as="geometry" />
        </mxCell>
        <mxCell id="kcvEA24CebEOUI8K_3z3-113" value="AbstractFactory" style="swimlane;fontStyle=1;align=center;verticalAlign=top;childLayout=stackLayout;horizontal=1;startSize=26;horizontalStack=0;resizeParent=1;resizeParentMax=0;resizeLast=0;collapsible=1;marginBottom=0;fillColor=#ffcccc;strokeColor=#36393d;" vertex="1" parent="WIyWlLk6GJQsqaUBKTNV-1">
          <mxGeometry x="530" y="780" width="160" height="80" as="geometry" />
        </mxCell>
        <mxCell id="kcvEA24CebEOUI8K_3z3-115" value="" style="line;strokeWidth=1;fillColor=none;align=left;verticalAlign=middle;spacingTop=-1;spacingLeft=3;spacingRight=3;rotatable=0;labelPosition=right;points=[];portConstraint=eastwest;" vertex="1" parent="kcvEA24CebEOUI8K_3z3-113">
          <mxGeometry y="26" width="160" height="8" as="geometry" />
        </mxCell>
        <mxCell id="kcvEA24CebEOUI8K_3z3-116" value="+ getElement() = 0:&#xa; Object" style="text;strokeColor=none;fillColor=none;align=left;verticalAlign=top;spacingLeft=4;spacingRight=4;overflow=hidden;rotatable=0;points=[[0,0.5],[1,0.5]];portConstraint=eastwest;" vertex="1" parent="kcvEA24CebEOUI8K_3z3-113">
          <mxGeometry y="34" width="160" height="46" as="geometry" />
        </mxCell>
        <mxCell id="kcvEA24CebEOUI8K_3z3-117" value="FactoryPacman" style="swimlane;fontStyle=1;align=center;verticalAlign=top;childLayout=stackLayout;horizontal=1;startSize=26;horizontalStack=0;resizeParent=1;resizeParentMax=0;resizeLast=0;collapsible=1;marginBottom=0;fillColor=#cce5ff;strokeColor=#36393d;" vertex="1" parent="WIyWlLk6GJQsqaUBKTNV-1">
          <mxGeometry x="360" y="830" width="140" height="64" as="geometry" />
        </mxCell>
        <mxCell id="kcvEA24CebEOUI8K_3z3-119" value="" style="line;strokeWidth=1;fillColor=none;align=left;verticalAlign=middle;spacingTop=-1;spacingLeft=3;spacingRight=3;rotatable=0;labelPosition=right;points=[];portConstraint=eastwest;" vertex="1" parent="kcvEA24CebEOUI8K_3z3-117">
          <mxGeometry y="26" width="140" height="8" as="geometry" />
        </mxCell>
        <mxCell id="kcvEA24CebEOUI8K_3z3-120" value="+ getElement(): Object" style="text;strokeColor=none;fillColor=none;align=left;verticalAlign=top;spacingLeft=4;spacingRight=4;overflow=hidden;rotatable=0;points=[[0,0.5],[1,0.5]];portConstraint=eastwest;" vertex="1" parent="kcvEA24CebEOUI8K_3z3-117">
          <mxGeometry y="34" width="140" height="30" as="geometry" />
        </mxCell>
        <mxCell id="kcvEA24CebEOUI8K_3z3-121" value="FactoryGhost" style="swimlane;fontStyle=1;align=center;verticalAlign=top;childLayout=stackLayout;horizontal=1;startSize=26;horizontalStack=0;resizeParent=1;resizeParentMax=0;resizeLast=0;collapsible=1;marginBottom=0;fillColor=#ffff88;strokeColor=#36393d;" vertex="1" parent="WIyWlLk6GJQsqaUBKTNV-1">
          <mxGeometry x="339" y="910" width="140" height="60" as="geometry" />
        </mxCell>
        <mxCell id="kcvEA24CebEOUI8K_3z3-123" value="" style="line;strokeWidth=1;fillColor=none;align=left;verticalAlign=middle;spacingTop=-1;spacingLeft=3;spacingRight=3;rotatable=0;labelPosition=right;points=[];portConstraint=eastwest;" vertex="1" parent="kcvEA24CebEOUI8K_3z3-121">
          <mxGeometry y="26" width="140" height="8" as="geometry" />
        </mxCell>
        <mxCell id="kcvEA24CebEOUI8K_3z3-124" value="+ getElement(): Object" style="text;strokeColor=none;fillColor=none;align=left;verticalAlign=top;spacingLeft=4;spacingRight=4;overflow=hidden;rotatable=0;points=[[0,0.5],[1,0.5]];portConstraint=eastwest;" vertex="1" parent="kcvEA24CebEOUI8K_3z3-121">
          <mxGeometry y="34" width="140" height="26" as="geometry" />
        </mxCell>
        <mxCell id="kcvEA24CebEOUI8K_3z3-125" value="FactoryWall" style="swimlane;fontStyle=1;align=center;verticalAlign=top;childLayout=stackLayout;horizontal=1;startSize=26;horizontalStack=0;resizeParent=1;resizeParentMax=0;resizeLast=0;collapsible=1;marginBottom=0;fillColor=#eeeeee;strokeColor=#36393d;" vertex="1" parent="WIyWlLk6GJQsqaUBKTNV-1">
          <mxGeometry x="680" y="970" width="140" height="60" as="geometry" />
        </mxCell>
        <mxCell id="kcvEA24CebEOUI8K_3z3-127" value="" style="line;strokeWidth=1;fillColor=none;align=left;verticalAlign=middle;spacingTop=-1;spacingLeft=3;spacingRight=3;rotatable=0;labelPosition=right;points=[];portConstraint=eastwest;" vertex="1" parent="kcvEA24CebEOUI8K_3z3-125">
          <mxGeometry y="26" width="140" height="8" as="geometry" />
        </mxCell>
        <mxCell id="kcvEA24CebEOUI8K_3z3-128" value="+ getElement(): Object" style="text;strokeColor=none;fillColor=none;align=left;verticalAlign=top;spacingLeft=4;spacingRight=4;overflow=hidden;rotatable=0;points=[[0,0.5],[1,0.5]];portConstraint=eastwest;" vertex="1" parent="kcvEA24CebEOUI8K_3z3-125">
          <mxGeometry y="34" width="140" height="26" as="geometry" />
        </mxCell>
        <mxCell id="kcvEA24CebEOUI8K_3z3-133" value="FactoryDot" style="swimlane;fontStyle=1;align=center;verticalAlign=top;childLayout=stackLayout;horizontal=1;startSize=26;horizontalStack=0;resizeParent=1;resizeParentMax=0;resizeLast=0;collapsible=1;marginBottom=0;fillColor=#cdeb8b;strokeColor=#36393d;" vertex="1" parent="WIyWlLk6GJQsqaUBKTNV-1">
          <mxGeometry x="510" y="970" width="140" height="60" as="geometry" />
        </mxCell>
        <mxCell id="kcvEA24CebEOUI8K_3z3-135" value="" style="line;strokeWidth=1;fillColor=none;align=left;verticalAlign=middle;spacingTop=-1;spacingLeft=3;spacingRight=3;rotatable=0;labelPosition=right;points=[];portConstraint=eastwest;" vertex="1" parent="kcvEA24CebEOUI8K_3z3-133">
          <mxGeometry y="26" width="140" height="8" as="geometry" />
        </mxCell>
        <mxCell id="kcvEA24CebEOUI8K_3z3-136" value="+ getElement(): Object" style="text;strokeColor=none;fillColor=none;align=left;verticalAlign=top;spacingLeft=4;spacingRight=4;overflow=hidden;rotatable=0;points=[[0,0.5],[1,0.5]];portConstraint=eastwest;" vertex="1" parent="kcvEA24CebEOUI8K_3z3-133">
          <mxGeometry y="34" width="140" height="26" as="geometry" />
        </mxCell>
        <mxCell id="kcvEA24CebEOUI8K_3z3-137" value="Extends" style="endArrow=block;endSize=16;endFill=0;html=1;rounded=0;entryX=-0.003;entryY=0.137;entryDx=0;entryDy=0;entryPerimeter=0;exitX=0.345;exitY=-0.031;exitDx=0;exitDy=0;exitPerimeter=0;" edge="1" parent="WIyWlLk6GJQsqaUBKTNV-1" source="kcvEA24CebEOUI8K_3z3-69" target="kcvEA24CebEOUI8K_3z3-49">
          <mxGeometry width="160" relative="1" as="geometry">
            <mxPoint x="10" y="78.6" as="sourcePoint" />
            <mxPoint x="170" y="78.6" as="targetPoint" />
          </mxGeometry>
        </mxCell>
        <mxCell id="kcvEA24CebEOUI8K_3z3-138" value="Extends" style="endArrow=block;endSize=16;endFill=0;html=1;rounded=0;entryX=0.806;entryY=1;entryDx=0;entryDy=0;entryPerimeter=0;exitX=0.25;exitY=0;exitDx=0;exitDy=0;" edge="1" parent="WIyWlLk6GJQsqaUBKTNV-1" source="kcvEA24CebEOUI8K_3z3-61" target="kcvEA24CebEOUI8K_3z3-52">
          <mxGeometry width="160" relative="1" as="geometry">
            <mxPoint x="330" y="260" as="sourcePoint" />
            <mxPoint x="490" y="260" as="targetPoint" />
          </mxGeometry>
        </mxCell>
        <mxCell id="kcvEA24CebEOUI8K_3z3-142" value="Extends" style="endArrow=block;endSize=16;endFill=0;html=1;rounded=0;entryX=0.489;entryY=1.026;entryDx=0;entryDy=0;entryPerimeter=0;exitX=0.25;exitY=0;exitDx=0;exitDy=0;" edge="1" parent="WIyWlLk6GJQsqaUBKTNV-1" source="kcvEA24CebEOUI8K_3z3-57" target="kcvEA24CebEOUI8K_3z3-52">
          <mxGeometry width="160" relative="1" as="geometry">
            <mxPoint x="220" y="252" as="sourcePoint" />
            <mxPoint x="380" y="252" as="targetPoint" />
          </mxGeometry>
        </mxCell>
        <mxCell id="kcvEA24CebEOUI8K_3z3-143" value="Extends" style="endArrow=block;endSize=16;endFill=0;html=1;rounded=0;entryX=1.008;entryY=1.096;entryDx=0;entryDy=0;entryPerimeter=0;exitX=0.25;exitY=0;exitDx=0;exitDy=0;" edge="1" parent="WIyWlLk6GJQsqaUBKTNV-1" source="kcvEA24CebEOUI8K_3z3-65" target="kcvEA24CebEOUI8K_3z3-50">
          <mxGeometry width="160" relative="1" as="geometry">
            <mxPoint x="460" y="71" as="sourcePoint" />
            <mxPoint x="620" y="71" as="targetPoint" />
          </mxGeometry>
        </mxCell>
        <mxCell id="kcvEA24CebEOUI8K_3z3-144" value="Extends" style="endArrow=block;endSize=16;endFill=0;html=1;rounded=0;exitX=0.822;exitY=-0.01;exitDx=0;exitDy=0;exitPerimeter=0;entryX=0.137;entryY=1.09;entryDx=0;entryDy=0;entryPerimeter=0;" edge="1" parent="WIyWlLk6GJQsqaUBKTNV-1" source="kcvEA24CebEOUI8K_3z3-53" target="kcvEA24CebEOUI8K_3z3-52">
          <mxGeometry width="160" relative="1" as="geometry">
            <mxPoint x="60" y="169.2" as="sourcePoint" />
            <mxPoint x="210" y="140" as="targetPoint" />
          </mxGeometry>
        </mxCell>
        <mxCell id="kcvEA24CebEOUI8K_3z3-145" value="EasyLevel" style="swimlane;fontStyle=1;align=center;verticalAlign=top;childLayout=stackLayout;horizontal=1;startSize=26;horizontalStack=0;resizeParent=1;resizeParentMax=0;resizeLast=0;collapsible=1;marginBottom=0;fillColor=#f8cecc;gradientColor=#ea6b66;strokeColor=#b85450;" vertex="1" parent="WIyWlLk6GJQsqaUBKTNV-1">
          <mxGeometry x="369" y="637" width="110" height="86" as="geometry" />
        </mxCell>
        <mxCell id="kcvEA24CebEOUI8K_3z3-146" value="+ field: type" style="text;strokeColor=none;fillColor=none;align=left;verticalAlign=top;spacingLeft=4;spacingRight=4;overflow=hidden;rotatable=0;points=[[0,0.5],[1,0.5]];portConstraint=eastwest;" vertex="1" parent="kcvEA24CebEOUI8K_3z3-145">
          <mxGeometry y="26" width="110" height="26" as="geometry" />
        </mxCell>
        <mxCell id="kcvEA24CebEOUI8K_3z3-147" value="" style="line;strokeWidth=1;fillColor=none;align=left;verticalAlign=middle;spacingTop=-1;spacingLeft=3;spacingRight=3;rotatable=0;labelPosition=right;points=[];portConstraint=eastwest;" vertex="1" parent="kcvEA24CebEOUI8K_3z3-145">
          <mxGeometry y="52" width="110" height="8" as="geometry" />
        </mxCell>
        <mxCell id="kcvEA24CebEOUI8K_3z3-148" value="+ method(type): type" style="text;strokeColor=none;fillColor=none;align=left;verticalAlign=top;spacingLeft=4;spacingRight=4;overflow=hidden;rotatable=0;points=[[0,0.5],[1,0.5]];portConstraint=eastwest;" vertex="1" parent="kcvEA24CebEOUI8K_3z3-145">
          <mxGeometry y="60" width="110" height="26" as="geometry" />
        </mxCell>
        <mxCell id="kcvEA24CebEOUI8K_3z3-149" value="MediumLevel" style="swimlane;fontStyle=1;align=center;verticalAlign=top;childLayout=stackLayout;horizontal=1;startSize=26;horizontalStack=0;resizeParent=1;resizeParentMax=0;resizeLast=0;collapsible=1;marginBottom=0;fillColor=#e6d0de;gradientColor=#d5739d;strokeColor=#996185;" vertex="1" parent="WIyWlLk6GJQsqaUBKTNV-1">
          <mxGeometry x="580" y="670" width="120" height="86" as="geometry" />
        </mxCell>
        <mxCell id="kcvEA24CebEOUI8K_3z3-150" value="+ field: type" style="text;strokeColor=none;fillColor=none;align=left;verticalAlign=top;spacingLeft=4;spacingRight=4;overflow=hidden;rotatable=0;points=[[0,0.5],[1,0.5]];portConstraint=eastwest;" vertex="1" parent="kcvEA24CebEOUI8K_3z3-149">
          <mxGeometry y="26" width="120" height="26" as="geometry" />
        </mxCell>
        <mxCell id="kcvEA24CebEOUI8K_3z3-151" value="" style="line;strokeWidth=1;fillColor=none;align=left;verticalAlign=middle;spacingTop=-1;spacingLeft=3;spacingRight=3;rotatable=0;labelPosition=right;points=[];portConstraint=eastwest;" vertex="1" parent="kcvEA24CebEOUI8K_3z3-149">
          <mxGeometry y="52" width="120" height="8" as="geometry" />
        </mxCell>
        <mxCell id="kcvEA24CebEOUI8K_3z3-152" value="+ method(type): type" style="text;strokeColor=none;fillColor=none;align=left;verticalAlign=top;spacingLeft=4;spacingRight=4;overflow=hidden;rotatable=0;points=[[0,0.5],[1,0.5]];portConstraint=eastwest;" vertex="1" parent="kcvEA24CebEOUI8K_3z3-149">
          <mxGeometry y="60" width="120" height="26" as="geometry" />
        </mxCell>
        <mxCell id="kcvEA24CebEOUI8K_3z3-153" value="HardLevel" style="swimlane;fontStyle=1;align=center;verticalAlign=top;childLayout=stackLayout;horizontal=1;startSize=26;horizontalStack=0;resizeParent=1;resizeParentMax=0;resizeLast=0;collapsible=1;marginBottom=0;fillColor=#ffcc99;strokeColor=#36393d;" vertex="1" parent="WIyWlLk6GJQsqaUBKTNV-1">
          <mxGeometry x="740" y="610" width="110" height="86" as="geometry" />
        </mxCell>
        <mxCell id="kcvEA24CebEOUI8K_3z3-154" value="+ field: type" style="text;strokeColor=none;fillColor=none;align=left;verticalAlign=top;spacingLeft=4;spacingRight=4;overflow=hidden;rotatable=0;points=[[0,0.5],[1,0.5]];portConstraint=eastwest;" vertex="1" parent="kcvEA24CebEOUI8K_3z3-153">
          <mxGeometry y="26" width="110" height="26" as="geometry" />
        </mxCell>
        <mxCell id="kcvEA24CebEOUI8K_3z3-155" value="" style="line;strokeWidth=1;fillColor=none;align=left;verticalAlign=middle;spacingTop=-1;spacingLeft=3;spacingRight=3;rotatable=0;labelPosition=right;points=[];portConstraint=eastwest;" vertex="1" parent="kcvEA24CebEOUI8K_3z3-153">
          <mxGeometry y="52" width="110" height="8" as="geometry" />
        </mxCell>
        <mxCell id="kcvEA24CebEOUI8K_3z3-156" value="+ method(type): type" style="text;strokeColor=none;fillColor=none;align=left;verticalAlign=top;spacingLeft=4;spacingRight=4;overflow=hidden;rotatable=0;points=[[0,0.5],[1,0.5]];portConstraint=eastwest;" vertex="1" parent="kcvEA24CebEOUI8K_3z3-153">
          <mxGeometry y="60" width="110" height="26" as="geometry" />
        </mxCell>
        <mxCell id="kcvEA24CebEOUI8K_3z3-159" value="&amp;lt;&amp;lt;enumeration&amp;gt;&amp;gt;&lt;br&gt;&lt;b&gt;ObjColour&lt;/b&gt;" style="swimlane;fontStyle=0;align=center;verticalAlign=top;childLayout=stackLayout;horizontal=1;startSize=40;horizontalStack=0;resizeParent=1;resizeParentMax=0;resizeLast=0;collapsible=0;marginBottom=0;html=1;fillColor=#fad7ac;strokeColor=#b46504;" vertex="1" parent="WIyWlLk6GJQsqaUBKTNV-1">
          <mxGeometry x="190" y="556" width="140" height="120" as="geometry" />
        </mxCell>
        <mxCell id="kcvEA24CebEOUI8K_3z3-160" value="COLPACMAN&lt;br&gt;COLGHOST&lt;br&gt;COLDOT&lt;br&gt;COLWALL&lt;br&gt;COLEMPTY" style="text;html=1;strokeColor=none;fillColor=none;align=left;verticalAlign=middle;spacingLeft=4;spacingRight=4;overflow=hidden;rotatable=0;points=[[0,0.5],[1,0.5]];portConstraint=eastwest;" vertex="1" parent="kcvEA24CebEOUI8K_3z3-159">
          <mxGeometry y="40" width="140" height="80" as="geometry" />
        </mxCell>
        <mxCell id="kcvEA24CebEOUI8K_3z3-161" value="&lt;p style=&quot;margin: 0px ; margin-top: 4px ; text-align: center&quot;&gt;&lt;i&gt;&amp;lt;&amp;lt;Interface&amp;gt;&amp;gt;&lt;/i&gt;&lt;br&gt;&lt;b&gt;Interface&lt;/b&gt;&lt;/p&gt;&lt;hr size=&quot;1&quot;&gt;&lt;p style=&quot;margin: 0px ; margin-left: 4px&quot;&gt;&lt;br&gt;&lt;/p&gt;&lt;hr size=&quot;1&quot;&gt;&lt;p style=&quot;margin: 0px ; margin-left: 4px&quot;&gt;+ read() = 0: void&lt;br&gt;+ draw(Field) = 0: void&lt;/p&gt;" style="verticalAlign=top;align=left;overflow=fill;fontSize=12;fontFamily=Helvetica;html=1;fillColor=#ffff88;strokeColor=#36393d;" vertex="1" parent="WIyWlLk6GJQsqaUBKTNV-1">
          <mxGeometry x="35" y="920" width="205" height="110" as="geometry" />
        </mxCell>
        <mxCell id="kcvEA24CebEOUI8K_3z3-162" value="&amp;lt;&amp;lt;enumeration&amp;gt;&amp;gt;&lt;br&gt;&lt;b&gt;GhostLevel&lt;/b&gt;" style="swimlane;fontStyle=0;align=center;verticalAlign=top;childLayout=stackLayout;horizontal=1;startSize=40;horizontalStack=0;resizeParent=1;resizeParentMax=0;resizeLast=0;collapsible=0;marginBottom=0;html=1;fillColor=#fad7ac;strokeColor=#b46504;" vertex="1" parent="WIyWlLk6GJQsqaUBKTNV-1">
          <mxGeometry x="20" y="700" width="130" height="90" as="geometry" />
        </mxCell>
        <mxCell id="kcvEA24CebEOUI8K_3z3-163" value="EASYGHOST&lt;br&gt;MEDIUMGHOST&lt;br&gt;HARDGHOST" style="text;html=1;strokeColor=none;fillColor=none;align=left;verticalAlign=middle;spacingLeft=4;spacingRight=4;overflow=hidden;rotatable=0;points=[[0,0.5],[1,0.5]];portConstraint=eastwest;" vertex="1" parent="kcvEA24CebEOUI8K_3z3-162">
          <mxGeometry y="40" width="130" height="50" as="geometry" />
        </mxCell>
        <mxCell id="kcvEA24CebEOUI8K_3z3-129" value="FactoryEmpty" style="swimlane;fontStyle=1;align=center;verticalAlign=top;childLayout=stackLayout;horizontal=1;startSize=26;horizontalStack=0;resizeParent=1;resizeParentMax=0;resizeLast=0;collapsible=1;marginBottom=0;fillColor=#e1d5e7;strokeColor=#9673a6;" vertex="1" parent="WIyWlLk6GJQsqaUBKTNV-1">
          <mxGeometry x="700" y="880" width="160" height="60" as="geometry" />
        </mxCell>
        <mxCell id="kcvEA24CebEOUI8K_3z3-131" value="" style="line;strokeWidth=1;fillColor=none;align=left;verticalAlign=middle;spacingTop=-1;spacingLeft=3;spacingRight=3;rotatable=0;labelPosition=right;points=[];portConstraint=eastwest;" vertex="1" parent="kcvEA24CebEOUI8K_3z3-129">
          <mxGeometry y="26" width="160" height="8" as="geometry" />
        </mxCell>
        <mxCell id="kcvEA24CebEOUI8K_3z3-132" value="+ getElement(): Object" style="text;strokeColor=none;fillColor=none;align=left;verticalAlign=top;spacingLeft=4;spacingRight=4;overflow=hidden;rotatable=0;points=[[0,0.5],[1,0.5]];portConstraint=eastwest;" vertex="1" parent="kcvEA24CebEOUI8K_3z3-129">
          <mxGeometry y="34" width="160" height="26" as="geometry" />
        </mxCell>
        <mxCell id="kcvEA24CebEOUI8K_3z3-165" value="Extends" style="endArrow=block;endSize=16;endFill=0;html=1;rounded=0;exitX=-0.009;exitY=0.331;exitDx=0;exitDy=0;exitPerimeter=0;entryX=0.998;entryY=0.128;entryDx=0;entryDy=0;entryPerimeter=0;" edge="1" parent="WIyWlLk6GJQsqaUBKTNV-1" source="kcvEA24CebEOUI8K_3z3-108" target="kcvEA24CebEOUI8K_3z3-161">
          <mxGeometry width="160" relative="1" as="geometry">
            <mxPoint x="245" y="610" as="sourcePoint" />
            <mxPoint x="260" y="640" as="targetPoint" />
          </mxGeometry>
        </mxCell>
        <mxCell id="kcvEA24CebEOUI8K_3z3-166" value="Extends" style="endArrow=block;endSize=16;endFill=0;html=1;rounded=0;entryX=1;entryY=0.75;entryDx=0;entryDy=0;exitX=0.5;exitY=0;exitDx=0;exitDy=0;" edge="1" parent="WIyWlLk6GJQsqaUBKTNV-1" source="kcvEA24CebEOUI8K_3z3-101" target="kcvEA24CebEOUI8K_3z3-161">
          <mxGeometry width="160" relative="1" as="geometry">
            <mxPoint x="160" y="730" as="sourcePoint" />
            <mxPoint x="320" y="730" as="targetPoint" />
          </mxGeometry>
        </mxCell>
        <mxCell id="kcvEA24CebEOUI8K_3z3-167" value="Extends" style="endArrow=block;endSize=16;endFill=0;html=1;rounded=0;entryX=0.398;entryY=1.001;entryDx=0;entryDy=0;entryPerimeter=0;exitX=0.382;exitY=-0.032;exitDx=0;exitDy=0;exitPerimeter=0;" edge="1" parent="WIyWlLk6GJQsqaUBKTNV-1" source="kcvEA24CebEOUI8K_3z3-97" target="kcvEA24CebEOUI8K_3z3-161">
          <mxGeometry width="160" relative="1" as="geometry">
            <mxPoint x="15" y="740" as="sourcePoint" />
            <mxPoint x="175" y="740" as="targetPoint" />
          </mxGeometry>
        </mxCell>
        <mxCell id="kcvEA24CebEOUI8K_3z3-168" value="Extends" style="endArrow=block;endSize=16;endFill=0;html=1;rounded=0;exitX=0.25;exitY=0;exitDx=0;exitDy=0;entryX=1;entryY=0.5;entryDx=0;entryDy=0;" edge="1" parent="WIyWlLk6GJQsqaUBKTNV-1" source="kcvEA24CebEOUI8K_3z3-129" target="kcvEA24CebEOUI8K_3z3-116">
          <mxGeometry width="160" relative="1" as="geometry">
            <mxPoint x="660" y="840" as="sourcePoint" />
            <mxPoint x="820" y="840" as="targetPoint" />
          </mxGeometry>
        </mxCell>
        <mxCell id="kcvEA24CebEOUI8K_3z3-169" value="Extends" style="endArrow=block;endSize=16;endFill=0;html=1;rounded=0;exitX=0.25;exitY=0;exitDx=0;exitDy=0;entryX=0.688;entryY=1;entryDx=0;entryDy=0;entryPerimeter=0;" edge="1" parent="WIyWlLk6GJQsqaUBKTNV-1" source="kcvEA24CebEOUI8K_3z3-125" target="kcvEA24CebEOUI8K_3z3-116">
          <mxGeometry width="160" relative="1" as="geometry">
            <mxPoint x="507" y="900" as="sourcePoint" />
            <mxPoint x="667" y="900" as="targetPoint" />
          </mxGeometry>
        </mxCell>
        <mxCell id="kcvEA24CebEOUI8K_3z3-170" value="Extends" style="endArrow=block;endSize=16;endFill=0;html=1;rounded=0;entryX=0.125;entryY=1;entryDx=0;entryDy=0;entryPerimeter=0;exitX=0.75;exitY=0;exitDx=0;exitDy=0;" edge="1" parent="WIyWlLk6GJQsqaUBKTNV-1" source="kcvEA24CebEOUI8K_3z3-121" target="kcvEA24CebEOUI8K_3z3-116">
          <mxGeometry width="160" relative="1" as="geometry">
            <mxPoint x="360" y="900" as="sourcePoint" />
            <mxPoint x="520" y="900" as="targetPoint" />
          </mxGeometry>
        </mxCell>
        <mxCell id="kcvEA24CebEOUI8K_3z3-171" value="Extends" style="endArrow=block;endSize=16;endFill=0;html=1;rounded=0;entryX=0.012;entryY=0.003;entryDx=0;entryDy=0;entryPerimeter=0;exitX=0.5;exitY=0;exitDx=0;exitDy=0;" edge="1" parent="WIyWlLk6GJQsqaUBKTNV-1" source="kcvEA24CebEOUI8K_3z3-117" target="kcvEA24CebEOUI8K_3z3-116">
          <mxGeometry width="160" relative="1" as="geometry">
            <mxPoint x="360" y="900" as="sourcePoint" />
            <mxPoint x="520" y="900" as="targetPoint" />
          </mxGeometry>
        </mxCell>
        <mxCell id="kcvEA24CebEOUI8K_3z3-172" value="Extends" style="endArrow=block;endSize=16;endFill=0;html=1;rounded=0;entryX=0.44;entryY=1.075;entryDx=0;entryDy=0;entryPerimeter=0;exitX=0.5;exitY=0;exitDx=0;exitDy=0;" edge="1" parent="WIyWlLk6GJQsqaUBKTNV-1" source="kcvEA24CebEOUI8K_3z3-133" target="kcvEA24CebEOUI8K_3z3-116">
          <mxGeometry width="160" relative="1" as="geometry">
            <mxPoint x="474" y="910" as="sourcePoint" />
            <mxPoint x="634" y="910" as="targetPoint" />
          </mxGeometry>
        </mxCell>
        <mxCell id="kcvEA24CebEOUI8K_3z3-173" value="Extends" style="endArrow=block;endSize=16;endFill=0;html=1;rounded=0;exitX=0.25;exitY=0;exitDx=0;exitDy=0;entryX=1;entryY=0.5;entryDx=0;entryDy=0;" edge="1" parent="WIyWlLk6GJQsqaUBKTNV-1" source="kcvEA24CebEOUI8K_3z3-153" target="kcvEA24CebEOUI8K_3z3-86">
          <mxGeometry width="160" relative="1" as="geometry">
            <mxPoint x="680" y="560" as="sourcePoint" />
            <mxPoint x="840" y="560" as="targetPoint" />
          </mxGeometry>
        </mxCell>
        <mxCell id="kcvEA24CebEOUI8K_3z3-174" value="Extends" style="endArrow=block;endSize=16;endFill=0;html=1;rounded=0;entryX=0.624;entryY=1.098;entryDx=0;entryDy=0;entryPerimeter=0;exitX=0.5;exitY=0;exitDx=0;exitDy=0;" edge="1" parent="WIyWlLk6GJQsqaUBKTNV-1" source="kcvEA24CebEOUI8K_3z3-149" target="kcvEA24CebEOUI8K_3z3-88">
          <mxGeometry width="160" relative="1" as="geometry">
            <mxPoint x="520" y="629.2" as="sourcePoint" />
            <mxPoint x="680" y="629.2" as="targetPoint" />
          </mxGeometry>
        </mxCell>
        <mxCell id="kcvEA24CebEOUI8K_3z3-175" value="Extends" style="endArrow=block;endSize=16;endFill=0;html=1;rounded=0;entryX=0.036;entryY=0.33;entryDx=0;entryDy=0;entryPerimeter=0;exitX=0.677;exitY=0.012;exitDx=0;exitDy=0;exitPerimeter=0;" edge="1" parent="WIyWlLk6GJQsqaUBKTNV-1" source="kcvEA24CebEOUI8K_3z3-145" target="kcvEA24CebEOUI8K_3z3-87">
          <mxGeometry width="160" relative="1" as="geometry">
            <mxPoint x="420" y="580" as="sourcePoint" />
            <mxPoint x="580" y="580" as="targetPoint" />
          </mxGeometry>
        </mxCell>
        <mxCell id="kcvEA24CebEOUI8K_3z3-176" value="Use" style="endArrow=open;endSize=12;dashed=1;html=1;rounded=0;exitX=0.212;exitY=1.076;exitDx=0;exitDy=0;exitPerimeter=0;entryX=0.931;entryY=0;entryDx=0;entryDy=0;entryPerimeter=0;" edge="1" parent="WIyWlLk6GJQsqaUBKTNV-1" source="kcvEA24CebEOUI8K_3z3-52" target="kcvEA24CebEOUI8K_3z3-109">
          <mxGeometry width="160" relative="1" as="geometry">
            <mxPoint x="210" y="260" as="sourcePoint" />
            <mxPoint x="370" y="260" as="targetPoint" />
          </mxGeometry>
        </mxCell>
        <mxCell id="kcvEA24CebEOUI8K_3z3-157" value="&amp;lt;&amp;lt;enumeration&amp;gt;&amp;gt;&lt;br&gt;&lt;b&gt;ObjType&lt;/b&gt;" style="swimlane;fontStyle=0;align=center;verticalAlign=top;childLayout=stackLayout;horizontal=1;startSize=40;horizontalStack=0;resizeParent=1;resizeParentMax=0;resizeLast=0;collapsible=0;marginBottom=0;html=1;fillColor=#fad7ac;strokeColor=#b46504;" vertex="1" parent="WIyWlLk6GJQsqaUBKTNV-1">
          <mxGeometry x="15" y="556" width="160" height="130" as="geometry" />
        </mxCell>
        <mxCell id="kcvEA24CebEOUI8K_3z3-158" value="OBJPACMAN&lt;br&gt;OBJGHOST&lt;br&gt;OBJDOT&lt;br&gt;OBJWALL&lt;br&gt;OBJEMPTY" style="text;html=1;strokeColor=none;fillColor=none;align=left;verticalAlign=middle;spacingLeft=4;spacingRight=4;overflow=hidden;rotatable=0;points=[[0,0.5],[1,0.5]];portConstraint=eastwest;" vertex="1" parent="kcvEA24CebEOUI8K_3z3-157">
          <mxGeometry y="40" width="160" height="90" as="geometry" />
        </mxCell>
        <mxCell id="kcvEA24CebEOUI8K_3z3-178" value="Use" style="endArrow=open;endSize=12;dashed=1;html=1;rounded=0;entryX=1;entryY=0.5;entryDx=0;entryDy=0;exitX=0;exitY=0.375;exitDx=0;exitDy=0;exitPerimeter=0;" edge="1" parent="WIyWlLk6GJQsqaUBKTNV-1" source="kcvEA24CebEOUI8K_3z3-83" target="kcvEA24CebEOUI8K_3z3-110">
          <mxGeometry width="160" relative="1" as="geometry">
            <mxPoint x="360" y="520" as="sourcePoint" />
            <mxPoint x="520" y="520" as="targetPoint" />
          </mxGeometry>
        </mxCell>
        <mxCell id="kcvEA24CebEOUI8K_3z3-180" value="Use" style="endArrow=open;endSize=12;dashed=1;html=1;rounded=0;entryX=1.027;entryY=0.86;entryDx=0;entryDy=0;entryPerimeter=0;exitX=0;exitY=0.5;exitDx=0;exitDy=0;" edge="1" parent="WIyWlLk6GJQsqaUBKTNV-1" source="kcvEA24CebEOUI8K_3z3-86" target="kcvEA24CebEOUI8K_3z3-110">
          <mxGeometry width="160" relative="1" as="geometry">
            <mxPoint x="360" y="500" as="sourcePoint" />
            <mxPoint x="520" y="500" as="targetPoint" />
          </mxGeometry>
        </mxCell>
        <mxCell id="kcvEA24CebEOUI8K_3z3-184" value="1" style="endArrow=open;html=1;endSize=12;startArrow=diamondThin;startSize=14;startFill=0;edgeStyle=orthogonalEdgeStyle;align=left;verticalAlign=bottom;rounded=0;entryX=-0.007;entryY=0.006;entryDx=0;entryDy=0;entryPerimeter=0;exitX=1;exitY=0.5;exitDx=0;exitDy=0;" edge="1" parent="WIyWlLk6GJQsqaUBKTNV-1" source="kcvEA24CebEOUI8K_3z3-82" target="kcvEA24CebEOUI8K_3z3-92">
          <mxGeometry x="-1" y="3" relative="1" as="geometry">
            <mxPoint x="520" y="460" as="sourcePoint" />
            <mxPoint x="630" y="463.6" as="targetPoint" />
            <Array as="points">
              <mxPoint x="630" y="464" />
              <mxPoint x="630" y="510" />
            </Array>
          </mxGeometry>
        </mxCell>
        <mxCell id="kcvEA24CebEOUI8K_3z3-187" value="1" style="endArrow=open;html=1;endSize=12;startArrow=diamondThin;startSize=14;startFill=0;edgeStyle=orthogonalEdgeStyle;align=left;verticalAlign=bottom;rounded=0;entryX=0.558;entryY=0.07;entryDx=0;entryDy=0;entryPerimeter=0;exitX=0.052;exitY=0.995;exitDx=0;exitDy=0;exitPerimeter=0;" edge="1" parent="WIyWlLk6GJQsqaUBKTNV-1" source="kcvEA24CebEOUI8K_3z3-80" target="kcvEA24CebEOUI8K_3z3-85">
          <mxGeometry x="-1" y="3" relative="1" as="geometry">
            <mxPoint x="470" y="500" as="sourcePoint" />
            <mxPoint x="630" y="500" as="targetPoint" />
            <Array as="points">
              <mxPoint x="564" y="477" />
              <mxPoint x="599" y="477" />
            </Array>
          </mxGeometry>
        </mxCell>
        <mxCell id="kcvEA24CebEOUI8K_3z3-188" value="1" style="endArrow=open;html=1;endSize=12;startArrow=diamondThin;startSize=14;startFill=0;edgeStyle=orthogonalEdgeStyle;align=left;verticalAlign=bottom;rounded=0;exitX=0;exitY=0.5;exitDx=0;exitDy=0;entryX=0.75;entryY=0;entryDx=0;entryDy=0;" edge="1" parent="WIyWlLk6GJQsqaUBKTNV-1" source="kcvEA24CebEOUI8K_3z3-80" target="kcvEA24CebEOUI8K_3z3-81">
          <mxGeometry x="-1" y="3" relative="1" as="geometry">
            <mxPoint x="350" y="460" as="sourcePoint" />
            <mxPoint x="510" y="460" as="targetPoint" />
          </mxGeometry>
        </mxCell>
        <mxCell id="kcvEA24CebEOUI8K_3z3-189" value="Use" style="endArrow=open;endSize=12;dashed=1;html=1;rounded=0;exitX=0.943;exitY=-0.028;exitDx=0;exitDy=0;exitPerimeter=0;entryX=0.419;entryY=1.031;entryDx=0;entryDy=0;entryPerimeter=0;" edge="1" parent="WIyWlLk6GJQsqaUBKTNV-1" source="kcvEA24CebEOUI8K_3z3-161" target="kcvEA24CebEOUI8K_3z3-84">
          <mxGeometry width="160" relative="1" as="geometry">
            <mxPoint x="350" y="790" as="sourcePoint" />
            <mxPoint x="350" y="610" as="targetPoint" />
          </mxGeometry>
        </mxCell>
        <mxCell id="kcvEA24CebEOUI8K_3z3-191" value="1" style="endArrow=open;html=1;endSize=12;startArrow=diamondThin;startSize=14;startFill=0;edgeStyle=orthogonalEdgeStyle;align=left;verticalAlign=bottom;rounded=0;entryX=0.5;entryY=0;entryDx=0;entryDy=0;exitX=0.469;exitY=1.05;exitDx=0;exitDy=0;exitPerimeter=0;" edge="1" parent="WIyWlLk6GJQsqaUBKTNV-1" source="kcvEA24CebEOUI8K_3z3-76" target="kcvEA24CebEOUI8K_3z3-161">
          <mxGeometry x="-1" y="3" relative="1" as="geometry">
            <mxPoint x="250" y="890" as="sourcePoint" />
            <mxPoint x="510" y="760" as="targetPoint" />
            <Array as="points">
              <mxPoint x="257" y="900" />
              <mxPoint x="138" y="900" />
            </Array>
          </mxGeometry>
        </mxCell>
        <mxCell id="kcvEA24CebEOUI8K_3z3-192" value="1" style="endArrow=open;html=1;endSize=12;startArrow=diamondThin;startSize=14;startFill=0;edgeStyle=orthogonalEdgeStyle;align=left;verticalAlign=bottom;rounded=0;entryX=0;entryY=1;entryDx=0;entryDy=0;exitX=0.5;exitY=0;exitDx=0;exitDy=0;" edge="1" parent="WIyWlLk6GJQsqaUBKTNV-1" source="kcvEA24CebEOUI8K_3z3-73" target="kcvEA24CebEOUI8K_3z3-77">
          <mxGeometry x="-1" y="3" relative="1" as="geometry">
            <mxPoint x="310" y="692.5599609375" as="sourcePoint" />
            <mxPoint x="480" y="430" as="targetPoint" />
            <Array as="points">
              <mxPoint x="262" y="693" />
              <mxPoint x="360" y="693" />
              <mxPoint x="360" y="600" />
              <mxPoint x="480" y="600" />
              <mxPoint x="480" y="430" />
            </Array>
          </mxGeometry>
        </mxCell>
        <mxCell id="kcvEA24CebEOUI8K_3z3-193" value="1" style="endArrow=open;html=1;endSize=12;startArrow=diamondThin;startSize=14;startFill=0;edgeStyle=orthogonalEdgeStyle;align=left;verticalAlign=bottom;rounded=0;exitX=0.829;exitY=-0.018;exitDx=0;exitDy=0;exitPerimeter=0;entryX=1;entryY=0.5;entryDx=0;entryDy=0;" edge="1" parent="WIyWlLk6GJQsqaUBKTNV-1" source="kcvEA24CebEOUI8K_3z3-89" target="kcvEA24CebEOUI8K_3z3-50">
          <mxGeometry x="-1" y="3" relative="1" as="geometry">
            <mxPoint x="810" y="420" as="sourcePoint" />
            <mxPoint x="500" y="80" as="targetPoint" />
            <Array as="points">
              <mxPoint x="803" y="380" />
              <mxPoint x="810" y="380" />
              <mxPoint x="810" y="80" />
              <mxPoint x="420" y="80" />
            </Array>
          </mxGeometry>
        </mxCell>
        <mxCell id="kcvEA24CebEOUI8K_3z3-194" value="&amp;lt;&amp;lt;enumeration&amp;gt;&amp;gt;&lt;br&gt;&lt;b&gt;ExitGame&lt;/b&gt;" style="swimlane;fontStyle=0;align=center;verticalAlign=top;childLayout=stackLayout;horizontal=1;startSize=40;horizontalStack=0;resizeParent=1;resizeParentMax=0;resizeLast=0;collapsible=0;marginBottom=0;html=1;fillColor=#ffe6cc;strokeColor=#d79b00;" vertex="1" parent="WIyWlLk6GJQsqaUBKTNV-1">
          <mxGeometry x="15" y="800" width="140" height="110" as="geometry" />
        </mxCell>
        <mxCell id="kcvEA24CebEOUI8K_3z3-195" value="EXIT_WON&lt;br&gt;EXIT_LOST&lt;br&gt;STOP&lt;br&gt;CONTINUE" style="text;html=1;strokeColor=none;fillColor=none;align=left;verticalAlign=middle;spacingLeft=4;spacingRight=4;overflow=hidden;rotatable=0;points=[[0,0.5],[1,0.5]];portConstraint=eastwest;" vertex="1" parent="kcvEA24CebEOUI8K_3z3-194">
          <mxGeometry y="40" width="140" height="70" as="geometry" />
        </mxCell>
      </root>
    </mxGraphModel>
  </diagram>
</mxfile>
